<?xml version="1.0" encoding="UTF-8"?>
<svg width="300" height="500" xmlns="http://www.w3.org/2000/svg">
  <rect width="300" height="500" fill="#000000"/>
  <rect x="0" y="0" width="20" height="20" fill="#4f3029"/>
  <rect x="20" y="0" width="20" height="20" fill="#513633"/>
  <rect x="40" y="0" width="20" height="20" fill="#47312f"/>
  <rect x="60" y="0" width="20" height="20" fill="#48332f"/>
  <rect x="80" y="0" width="20" height="20" fill="#48312b"/>
  <rect x="100" y="0" width="20" height="20" fill="#4e3329"/>
  <rect x="120" y="0" width="20" height="20" fill="#50362b"/>
  <rect x="140" y="0" width="20" height="20" fill="#b5553c"/>
  <rect x="160" y="0" width="20" height="20" fill="#4d392c"/>
  <rect x="180" y="0" width="20" height="20" fill="#513332"/>
  <rect x="200" y="0" width="20" height="20" fill="#48322d"/>
  <rect x="220" y="0" width="20" height="20" fill="#4e322d"/>
  <rect x="240" y="0" width="20" height="20" fill="#4c2f2b"/>
  <rect x="260" y="0" width="20" height="20" fill="#513533"/>
  <rect x="280" y="0" width="20" height="20" fill="#483133"/>
  <rect x="0" y="20" width="20" height="20" fill="#4f3629"/>
  <rect x="20" y="20" width="20" height="20" fill="#4c352b"/>
  <rect x="40" y="20" width="20" height="20" fill="#46322d"/>
  <rect x="60" y="20" width="20" height="20" fill="#483029"/>
  <rect x="80" y="20" width="20" height="20" fill="#4e2f33"/>
  <rect x="100" y="20" width="20" height="20" fill="#4e3033"/>
  <rect x="120" y="20" width="20" height="20" fill="#4b3430"/>
  <rect x="140" y="20" width="20" height="20" fill="#b35c39"/>
  <rect x="160" y="20" width="20" height="20" fill="#463231"/>
  <rect x="180" y="20" width="20" height="20" fill="#4f3232"/>
  <rect x="200" y="20" width="20" height="20" fill="#4c302c"/>
  <rect x="220" y="20" width="20" height="20" fill="#46382e"/>
  <rect x="240" y="20" width="20" height="20" fill="#483128"/>
  <rect x="260" y="20" width="20" height="20" fill="#483931"/>
  <rect x="280" y="20" width="20" height="20" fill="#472e31"/>
  <rect x="0" y="40" width="20" height="20" fill="#51352d"/>
  <rect x="20" y="40" width="20" height="20" fill="#482f2f"/>
  <rect x="40" y="40" width="20" height="20" fill="#51392a"/>
  <rect x="60" y="40" width="20" height="20" fill="#4a3528"/>
  <rect x="80" y="40" width="20" height="20" fill="#462e31"/>
  <rect x="100" y="40" width="20" height="20" fill="#463432"/>
  <rect x="120" y="40" width="20" height="20" fill="#493928"/>
  <rect x="140" y="40" width="20" height="20" fill="#b16137"/>
  <rect x="160" y="40" width="20" height="20" fill="#503032"/>
  <rect x="180" y="40" width="20" height="20" fill="#48332f"/>
  <rect x="200" y="40" width="20" height="20" fill="#493531"/>
  <rect x="220" y="40" width="20" height="20" fill="#4d382e"/>
  <rect x="240" y="40" width="20" height="20" fill="#503828"/>
  <rect x="260" y="40" width="20" height="20" fill="#482f2f"/>
  <rect x="280" y="40" width="20" height="20" fill="#4f322b"/>
  <rect x="0" y="60" width="20" height="20" fill="#4c2e32"/>
  <rect x="20" y="60" width="20" height="20" fill="#4f352e"/>
  <rect x="40" y="60" width="20" height="20" fill="#46362e"/>
  <rect x="60" y="60" width="20" height="20" fill="#493231"/>
  <rect x="80" y="60" width="20" height="20" fill="#48322c"/>
  <rect x="100" y="60" width="20" height="20" fill="#4b3832"/>
  <rect x="120" y="60" width="20" height="20" fill="#4c382c"/>
  <rect x="140" y="60" width="20" height="20" fill="#b45433"/>
  <rect x="160" y="60" width="20" height="20" fill="#4d3431"/>
  <rect x="180" y="60" width="20" height="20" fill="#47352e"/>
  <rect x="200" y="60" width="20" height="20" fill="#48362d"/>
  <rect x="220" y="60" width="20" height="20" fill="#4f2f2a"/>
  <rect x="240" y="60" width="20" height="20" fill="#4b3329"/>
  <rect x="260" y="60" width="20" height="20" fill="#4e2e33"/>
  <rect x="280" y="60" width="20" height="20" fill="#48302d"/>
  <rect x="0" y="80" width="20" height="20" fill="#503130"/>
  <rect x="20" y="80" width="20" height="20" fill="#4a382c"/>
  <rect x="40" y="80" width="20" height="20" fill="#4d3528"/>
  <rect x="60" y="80" width="20" height="20" fill="#49312a"/>
  <rect x="80" y="80" width="20" height="20" fill="#502f2d"/>
  <rect x="100" y="80" width="20" height="20" fill="#512f2a"/>
  <rect x="120" y="80" width="20" height="20" fill="#46302d"/>
  <rect x="140" y="80" width="20" height="20" fill="#b5563d"/>
  <rect x="160" y="80" width="20" height="20" fill="#4e312a"/>
  <rect x="180" y="80" width="20" height="20" fill="#4b3530"/>
  <rect x="200" y="80" width="20" height="20" fill="#4a332f"/>
  <rect x="220" y="80" width="20" height="20" fill="#4e3228"/>
  <rect x="240" y="80" width="20" height="20" fill="#503731"/>
  <rect x="260" y="80" width="20" height="20" fill="#512e2a"/>
  <rect x="280" y="80" width="20" height="20" fill="#4e3228"/>
  <rect x="0" y="100" width="20" height="20" fill="#4c3928"/>
  <rect x="20" y="100" width="20" height="20" fill="#472f2a"/>
  <rect x="40" y="100" width="20" height="20" fill="#4c352a"/>
  <rect x="60" y="100" width="20" height="20" fill="#512e2f"/>
  <rect x="80" y="100" width="20" height="20" fill="#48362e"/>
  <rect x="100" y="100" width="20" height="20" fill="#4b3329"/>
  <rect x="120" y="100" width="20" height="20" fill="#463231"/>
  <rect x="140" y="100" width="20" height="20" fill="#a6613d"/>
  <rect x="160" y="100" width="20" height="20" fill="#4b3333"/>
  <rect x="180" y="100" width="20" height="20" fill="#503332"/>
  <rect x="200" y="100" width="20" height="20" fill="#4b3932"/>
  <rect x="220" y="100" width="20" height="20" fill="#503330"/>
  <rect x="240" y="100" width="20" height="20" fill="#46322f"/>
  <rect x="260" y="100" width="20" height="20" fill="#4d352c"/>
  <rect x="280" y="100" width="20" height="20" fill="#4d3932"/>
  <rect x="0" y="120" width="20" height="20" fill="#463529"/>
  <rect x="20" y="120" width="20" height="20" fill="#46392f"/>
  <rect x="40" y="120" width="20" height="20" fill="#50342b"/>
  <rect x="60" y="120" width="20" height="20" fill="#4f3929"/>
  <rect x="80" y="120" width="20" height="20" fill="#4a392a"/>
  <rect x="100" y="120" width="20" height="20" fill="#4a2e29"/>
  <rect x="120" y="120" width="20" height="20" fill="#512e32"/>
  <rect x="140" y="120" width="20" height="20" fill="#ad6132"/>
  <rect x="160" y="120" width="20" height="20" fill="#50352e"/>
  <rect x="180" y="120" width="20" height="20" fill="#4e332a"/>
  <rect x="200" y="120" width="20" height="20" fill="#4a2e2c"/>
  <rect x="220" y="120" width="20" height="20" fill="#4f392b"/>
  <rect x="240" y="120" width="20" height="20" fill="#473133"/>
  <rect x="260" y="120" width="20" height="20" fill="#48362f"/>
  <rect x="280" y="120" width="20" height="20" fill="#48302c"/>
  <rect x="0" y="140" width="20" height="20" fill="#463933"/>
  <rect x="20" y="140" width="20" height="20" fill="#4e2e2b"/>
  <rect x="40" y="140" width="20" height="20" fill="#493528"/>
  <rect x="60" y="140" width="20" height="20" fill="#49332d"/>
  <rect x="80" y="140" width="20" height="20" fill="#4b382d"/>
  <rect x="100" y="140" width="20" height="20" fill="#4d3129"/>
  <rect x="120" y="140" width="20" height="20" fill="#47312e"/>
  <rect x="140" y="140" width="20" height="20" fill="#af623c"/>
  <rect x="160" y="140" width="20" height="20" fill="#4c3132"/>
  <rect x="180" y="140" width="20" height="20" fill="#46352f"/>
  <rect x="200" y="140" width="20" height="20" fill="#4c2f30"/>
  <rect x="220" y="140" width="20" height="20" fill="#4e312d"/>
  <rect x="240" y="140" width="20" height="20" fill="#46342f"/>
  <rect x="260" y="140" width="20" height="20" fill="#50382c"/>
  <rect x="280" y="140" width="20" height="20" fill="#4e372c"/>
  <rect x="0" y="160" width="20" height="20" fill="#51362f"/>
  <rect x="20" y="160" width="20" height="20" fill="#4e3233"/>
  <rect x="40" y="160" width="20" height="20" fill="#513633"/>
  <rect x="60" y="160" width="20" height="20" fill="#483228"/>
  <rect x="80" y="160" width="20" height="20" fill="#4e322f"/>
  <rect x="100" y="160" width="20" height="20" fill="#4a312a"/>
  <rect x="120" y="160" width="20" height="20" fill="#4b322e"/>
  <rect x="140" y="160" width="20" height="20" fill="#b45f3d"/>
  <rect x="160" y="160" width="20" height="20" fill="#463032"/>
  <rect x="180" y="160" width="20" height="20" fill="#48302d"/>
  <rect x="200" y="160" width="20" height="20" fill="#4a372b"/>
  <rect x="220" y="160" width="20" height="20" fill="#472f2a"/>
  <rect x="240" y="160" width="20" height="20" fill="#493329"/>
  <rect x="260" y="160" width="20" height="20" fill="#4b302e"/>
  <rect x="280" y="160" width="20" height="20" fill="#4c3329"/>
  <rect x="0" y="180" width="20" height="20" fill="#4c2f31"/>
  <rect x="20" y="180" width="20" height="20" fill="#483231"/>
  <rect x="40" y="180" width="20" height="20" fill="#4b362e"/>
  <rect x="60" y="180" width="20" height="20" fill="#4a3828"/>
  <rect x="80" y="180" width="20" height="20" fill="#4d3933"/>
  <rect x="100" y="180" width="20" height="20" fill="#4e2f32"/>
  <rect x="120" y="180" width="20" height="20" fill="#513832"/>
  <rect x="140" y="180" width="20" height="20" fill="#a65c33"/>
  <rect x="160" y="180" width="20" height="20" fill="#4f3630"/>
  <rect x="180" y="180" width="20" height="20" fill="#4f3432"/>
  <rect x="200" y="180" width="20" height="20" fill="#51362c"/>
  <rect x="220" y="180" width="20" height="20" fill="#47362a"/>
  <rect x="240" y="180" width="20" height="20" fill="#48302a"/>
  <rect x="260" y="180" width="20" height="20" fill="#513928"/>
  <rect x="280" y="180" width="20" height="20" fill="#50352e"/>
  <rect x="0" y="200" width="20" height="20" fill="#503032"/>
  <rect x="20" y="200" width="20" height="20" fill="#51382d"/>
  <rect x="40" y="200" width="20" height="20" fill="#4c3428"/>
  <rect x="60" y="200" width="20" height="20" fill="#4c372e"/>
  <rect x="80" y="200" width="20" height="20" fill="#493832"/>
  <rect x="100" y="200" width="20" height="20" fill="#46362e"/>
  <rect x="120" y="200" width="20" height="20" fill="#4c342b"/>
  <rect x="140" y="200" width="20" height="20" fill="#a9563a"/>
  <rect x="160" y="200" width="20" height="20" fill="#462f31"/>
  <rect x="180" y="200" width="20" height="20" fill="#4c3828"/>
  <rect x="200" y="200" width="20" height="20" fill="#4f382d"/>
  <rect x="220" y="200" width="20" height="20" fill="#4b2e2f"/>
  <rect x="240" y="200" width="20" height="20" fill="#4d342a"/>
  <rect x="260" y="200" width="20" height="20" fill="#483528"/>
  <rect x="280" y="200" width="20" height="20" fill="#46332f"/>
  <rect x="0" y="220" width="20" height="20" fill="#483929"/>
  <rect x="20" y="220" width="20" height="20" fill="#4f392a"/>
  <rect x="40" y="220" width="20" height="20" fill="#513928"/>
  <rect x="60" y="220" width="20" height="20" fill="#48352e"/>
  <rect x="80" y="220" width="20" height="20" fill="#4c3432"/>
  <rect x="100" y="220" width="20" height="20" fill="#4f382e"/>
  <rect x="120" y="220" width="20" height="20" fill="#47312c"/>
  <rect x="140" y="220" width="20" height="20" fill="#aa5b33"/>
  <rect x="160" y="220" width="20" height="20" fill="#4a322f"/>
  <rect x="180" y="220" width="20" height="20" fill="#4c2e2d"/>
  <rect x="200" y="220" width="20" height="20" fill="#4a302a"/>
  <rect x="220" y="220" width="20" height="20" fill="#503033"/>
  <rect x="240" y="220" width="20" height="20" fill="#4d2e2b"/>
  <rect x="260" y="220" width="20" height="20" fill="#4b332e"/>
  <rect x="280" y="220" width="20" height="20" fill="#4f2f2d"/>
  <rect x="0" y="240" width="20" height="20" fill="#463628"/>
  <rect x="20" y="240" width="20" height="20" fill="#492e28"/>
  <rect x="40" y="240" width="20" height="20" fill="#50332a"/>
  <rect x="60" y="240" width="20" height="20" fill="#473233"/>
  <rect x="80" y="240" width="20" height="20" fill="#4c312b"/>
  <rect x="100" y="240" width="20" height="20" fill="#4e352c"/>
  <rect x="120" y="240" width="20" height="20" fill="#4b332a"/>
  <rect x="140" y="240" width="20" height="20" fill="#b45c35"/>
  <rect x="160" y="240" width="20" height="20" fill="#4f372a"/>
  <rect x="180" y="240" width="20" height="20" fill="#513528"/>
  <rect x="200" y="240" width="20" height="20" fill="#49302f"/>
  <rect x="220" y="240" width="20" height="20" fill="#493431"/>
  <rect x="240" y="240" width="20" height="20" fill="#4b3731"/>
  <rect x="260" y="240" width="20" height="20" fill="#51372d"/>
  <rect x="280" y="240" width="20" height="20" fill="#4a3532"/>
  <rect x="0" y="260" width="20" height="20" fill="#4b3532"/>
  <rect x="20" y="260" width="20" height="20" fill="#502f32"/>
  <rect x="40" y="260" width="20" height="20" fill="#473531"/>
  <rect x="60" y="260" width="20" height="20" fill="#4f2e29"/>
  <rect x="80" y="260" width="20" height="20" fill="#503730"/>
  <rect x="100" y="260" width="20" height="20" fill="#482e2d"/>
  <rect x="120" y="260" width="20" height="20" fill="#4a3232"/>
  <rect x="140" y="260" width="20" height="20" fill="#ad5d32"/>
  <rect x="160" y="260" width="20" height="20" fill="#4f352d"/>
  <rect x="180" y="260" width="20" height="20" fill="#4b3832"/>
  <rect x="200" y="260" width="20" height="20" fill="#50322f"/>
  <rect x="220" y="260" width="20" height="20" fill="#4d362d"/>
  <rect x="240" y="260" width="20" height="20" fill="#4f302d"/>
  <rect x="260" y="260" width="20" height="20" fill="#48302d"/>
  <rect x="280" y="260" width="20" height="20" fill="#4e2f28"/>
  <rect x="0" y="280" width="20" height="20" fill="#46372c"/>
  <rect x="20" y="280" width="20" height="20" fill="#4f312d"/>
  <rect x="40" y="280" width="20" height="20" fill="#47332b"/>
  <rect x="60" y="280" width="20" height="20" fill="#4f3629"/>
  <rect x="80" y="280" width="20" height="20" fill="#50322d"/>
  <rect x="100" y="280" width="20" height="20" fill="#4e392f"/>
  <rect x="120" y="280" width="20" height="20" fill="#4f3130"/>
  <rect x="140" y="280" width="20" height="20" fill="#b05a3b"/>
  <rect x="160" y="280" width="20" height="20" fill="#51332f"/>
  <rect x="180" y="280" width="20" height="20" fill="#513733"/>
  <rect x="200" y="280" width="20" height="20" fill="#4d2f2e"/>
  <rect x="220" y="280" width="20" height="20" fill="#503533"/>
  <rect x="240" y="280" width="20" height="20" fill="#46362c"/>
  <rect x="260" y="280" width="20" height="20" fill="#4b3732"/>
  <rect x="280" y="280" width="20" height="20" fill="#4b312d"/>
  <rect x="0" y="300" width="20" height="20" fill="#473132"/>
  <rect x="20" y="300" width="20" height="20" fill="#4d2f28"/>
  <rect x="40" y="300" width="20" height="20" fill="#4c3828"/>
  <rect x="60" y="300" width="20" height="20" fill="#4f312b"/>
  <rect x="80" y="300" width="20" height="20" fill="#4a3033"/>
  <rect x="100" y="300" width="20" height="20" fill="#493030"/>
  <rect x="120" y="300" width="20" height="20" fill="#4f372c"/>
  <rect x="140" y="300" width="20" height="20" fill="#aa5431"/>
  <rect x="160" y="300" width="20" height="20" fill="#4e2f32"/>
  <rect x="180" y="300" width="20" height="20" fill="#4e322a"/>
  <rect x="200" y="300" width="20" height="20" fill="#4f3328"/>
  <rect x="220" y="300" width="20" height="20" fill="#4a312e"/>
  <rect x="240" y="300" width="20" height="20" fill="#4c2f31"/>
  <rect x="260" y="300" width="20" height="20" fill="#4a3833"/>
  <rect x="280" y="300" width="20" height="20" fill="#4f3332"/>
  <rect x="0" y="320" width="20" height="20" fill="#4c322c"/>
  <rect x="20" y="320" width="20" height="20" fill="#4a3932"/>
  <rect x="40" y="320" width="20" height="20" fill="#472e2b"/>
  <rect x="60" y="320" width="20" height="20" fill="#4e2f2d"/>
  <rect x="80" y="320" width="20" height="20" fill="#493528"/>
  <rect x="100" y="320" width="20" height="20" fill="#4a392e"/>
  <rect x="120" y="320" width="20" height="20" fill="#493828"/>
  <rect x="140" y="320" width="20" height="20" fill="#ac563d"/>
  <rect x="160" y="320" width="20" height="20" fill="#4d372a"/>
  <rect x="180" y="320" width="20" height="20" fill="#4b392b"/>
  <rect x="200" y="320" width="20" height="20" fill="#4e2f2d"/>
  <rect x="220" y="320" width="20" height="20" fill="#482f2b"/>
  <rect x="240" y="320" width="20" height="20" fill="#4b372b"/>
  <rect x="260" y="320" width="20" height="20" fill="#4f3733"/>
  <rect x="280" y="320" width="20" height="20" fill="#493230"/>
  <rect x="0" y="340" width="20" height="20" fill="#4f3731"/>
  <rect x="20" y="340" width="20" height="20" fill="#4f332e"/>
  <rect x="40" y="340" width="20" height="20" fill="#513432"/>
  <rect x="60" y="340" width="20" height="20" fill="#4f362f"/>
  <rect x="80" y="340" width="20" height="20" fill="#51372e"/>
  <rect x="100" y="340" width="20" height="20" fill="#49392a"/>
  <rect x="120" y="340" width="20" height="20" fill="#4c342e"/>
  <rect x="140" y="340" width="20" height="20" fill="#a95636"/>
  <rect x="160" y="340" width="20" height="20" fill="#4d3929"/>
  <rect x="180" y="340" width="20" height="20" fill="#492f2f"/>
  <rect x="200" y="340" width="20" height="20" fill="#493832"/>
  <rect x="220" y="340" width="20" height="20" fill="#4b3033"/>
  <rect x="240" y="340" width="20" height="20" fill="#483330"/>
  <rect x="260" y="340" width="20" height="20" fill="#4c2f29"/>
  <rect x="280" y="340" width="20" height="20" fill="#4b3631"/>
  <rect x="0" y="360" width="20" height="20" fill="#4a302c"/>
  <rect x="20" y="360" width="20" height="20" fill="#473430"/>
  <rect x="40" y="360" width="20" height="20" fill="#513329"/>
  <rect x="60" y="360" width="20" height="20" fill="#4c3431"/>
  <rect x="80" y="360" width="20" height="20" fill="#4f3029"/>
  <rect x="100" y="360" width="20" height="20" fill="#46392d"/>
  <rect x="120" y="360" width="20" height="20" fill="#483133"/>
  <rect x="140" y="360" width="20" height="20" fill="#b25e3b"/>
  <rect x="160" y="360" width="20" height="20" fill="#4a2e2b"/>
  <rect x="180" y="360" width="20" height="20" fill="#51362c"/>
  <rect x="200" y="360" width="20" height="20" fill="#483430"/>
  <rect x="220" y="360" width="20" height="20" fill="#4d372f"/>
  <rect x="240" y="360" width="20" height="20" fill="#4c3930"/>
  <rect x="260" y="360" width="20" height="20" fill="#4f392d"/>
  <rect x="280" y="360" width="20" height="20" fill="#4b3130"/>
  <rect x="0" y="380" width="20" height="20" fill="#50372c"/>
  <rect x="20" y="380" width="20" height="20" fill="#483630"/>
  <rect x="40" y="380" width="20" height="20" fill="#493731"/>
  <rect x="60" y="380" width="20" height="20" fill="#48352c"/>
  <rect x="80" y="380" width="20" height="20" fill="#4d302a"/>
  <rect x="100" y="380" width="20" height="20" fill="#4a3629"/>
  <rect x="120" y="380" width="20" height="20" fill="#4f2f2e"/>
  <rect x="140" y="380" width="20" height="20" fill="#b25835"/>
  <rect x="160" y="380" width="20" height="20" fill="#47392d"/>
  <rect x="180" y="380" width="20" height="20" fill="#502e29"/>
  <rect x="200" y="380" width="20" height="20" fill="#513332"/>
  <rect x="220" y="380" width="20" height="20" fill="#463933"/>
  <rect x="240" y="380" width="20" height="20" fill="#4b3031"/>
  <rect x="260" y="380" width="20" height="20" fill="#4c3331"/>
  <rect x="280" y="380" width="20" height="20" fill="#4b2e32"/>
  <rect x="0" y="400" width="20" height="20" fill="#473729"/>
  <rect x="20" y="400" width="20" height="20" fill="#493329"/>
  <rect x="40" y="400" width="20" height="20" fill="#473929"/>
  <rect x="60" y="400" width="20" height="20" fill="#513833"/>
  <rect x="80" y="400" width="20" height="20" fill="#493331"/>
  <rect x="100" y="400" width="20" height="20" fill="#4c302b"/>
  <rect x="120" y="400" width="20" height="20" fill="#4f3129"/>
  <rect x="140" y="400" width="20" height="20" fill="#ab5d3a"/>
  <rect x="160" y="400" width="20" height="20" fill="#49392e"/>
  <rect x="180" y="400" width="20" height="20" fill="#48362d"/>
  <rect x="200" y="400" width="20" height="20" fill="#4c3830"/>
  <rect x="220" y="400" width="20" height="20" fill="#4f3730"/>
  <rect x="240" y="400" width="20" height="20" fill="#463733"/>
  <rect x="260" y="400" width="20" height="20" fill="#4c2e2f"/>
  <rect x="280" y="400" width="20" height="20" fill="#503133"/>
  <rect x="0" y="420" width="20" height="20" fill="#50342f"/>
  <rect x="20" y="420" width="20" height="20" fill="#4d3631"/>
  <rect x="40" y="420" width="20" height="20" fill="#4c3829"/>
  <rect x="60" y="420" width="20" height="20" fill="#50382b"/>
  <rect x="80" y="420" width="20" height="20" fill="#4a342b"/>
  <rect x="100" y="420" width="20" height="20" fill="#482e32"/>
  <rect x="120" y="420" width="20" height="20" fill="#4d392f"/>
  <rect x="140" y="420" width="20" height="20" fill="#a75538"/>
  <rect x="160" y="420" width="20" height="20" fill="#503333"/>
  <rect x="180" y="420" width="20" height="20" fill="#493533"/>
  <rect x="200" y="420" width="20" height="20" fill="#463230"/>
  <rect x="220" y="420" width="20" height="20" fill="#472e2e"/>
  <rect x="240" y="420" width="20" height="20" fill="#4a382e"/>
  <rect x="260" y="420" width="20" height="20" fill="#51332c"/>
  <rect x="280" y="420" width="20" height="20" fill="#48332b"/>
  <rect x="0" y="440" width="20" height="20" fill="#4a3429"/>
  <rect x="20" y="440" width="20" height="20" fill="#51352e"/>
  <rect x="40" y="440" width="20" height="20" fill="#463831"/>
  <rect x="60" y="440" width="20" height="20" fill="#4e3733"/>
  <rect x="80" y="440" width="20" height="20" fill="#483629"/>
  <rect x="100" y="440" width="20" height="20" fill="#47322c"/>
  <rect x="120" y="440" width="20" height="20" fill="#493031"/>
  <rect x="140" y="440" width="20" height="20" fill="#aa553d"/>
  <rect x="160" y="440" width="20" height="20" fill="#512e2f"/>
  <rect x="180" y="440" width="20" height="20" fill="#4c3633"/>
  <rect x="200" y="440" width="20" height="20" fill="#4f372c"/>
  <rect x="220" y="440" width="20" height="20" fill="#4f352a"/>
  <rect x="240" y="440" width="20" height="20" fill="#473131"/>
  <rect x="260" y="440" width="20" height="20" fill="#4e392a"/>
  <rect x="280" y="440" width="20" height="20" fill="#513533"/>
  <rect x="0" y="460" width="20" height="20" fill="#4b332e"/>
  <rect x="20" y="460" width="20" height="20" fill="#4e3632"/>
  <rect x="40" y="460" width="20" height="20" fill="#4b2e2e"/>
  <rect x="60" y="460" width="20" height="20" fill="#463830"/>
  <rect x="80" y="460" width="20" height="20" fill="#4c372a"/>
  <rect x="100" y="460" width="20" height="20" fill="#513128"/>
  <rect x="120" y="460" width="20" height="20" fill="#51312f"/>
  <rect x="140" y="460" width="20" height="20" fill="#b1543d"/>
  <rect x="160" y="460" width="20" height="20" fill="#4c322a"/>
  <rect x="180" y="460" width="20" height="20" fill="#4e3931"/>
  <rect x="200" y="460" width="20" height="20" fill="#503832"/>
  <rect x="220" y="460" width="20" height="20" fill="#4f3330"/>
  <rect x="240" y="460" width="20" height="20" fill="#463232"/>
  <rect x="260" y="460" width="20" height="20" fill="#482f2e"/>
  <rect x="280" y="460" width="20" height="20" fill="#4f3031"/>
  <rect x="0" y="480" width="20" height="20" fill="#502f2a"/>
  <rect x="20" y="480" width="20" height="20" fill="#493430"/>
  <rect x="40" y="480" width="20" height="20" fill="#4e3332"/>
  <rect x="60" y="480" width="20" height="20" fill="#51352f"/>
  <rect x="80" y="480" width="20" height="20" fill="#46342c"/>
  <rect x="100" y="480" width="20" height="20" fill="#4d3332"/>
  <rect x="120" y="480" width="20" height="20" fill="#4d322a"/>
  <rect x="140" y="480" width="20" height="20" fill="#a65539"/>
  <rect x="160" y="480" width="20" height="20" fill="#51382b"/>
  <rect x="180" y="480" width="20" height="20" fill="#4b372d"/>
  <rect x="200" y="480" width="20" height="20" fill="#4e362f"/>
  <rect x="220" y="480" width="20" height="20" fill="#4d372a"/>
  <rect x="240" y="480" width="20" height="20" fill="#4c382c"/>
  <rect x="260" y="480" width="20" height="20" fill="#48362e"/>
  <rect x="280" y="480" width="20" height="20" fill="#4d3433"/>
</svg>